<svg width="71" height="31" viewBox="0 0 71 31" fill="none" xmlns="http://www.w3.org/2000/svg">
<path d="M36.6514 22.4023H32.4814L31.5449 25H30.1914L33.9922 15.0469H35.1406L38.9482 25H37.6016L36.6514 22.4023ZM32.8779 21.3223H36.2617L34.5664 16.667L32.8779 21.3223ZM39.7822 21.2402C39.7822 20.1055 40.0511 19.194 40.5889 18.5059C41.1266 17.8132 41.8307 17.4668 42.7012 17.4668C43.5671 17.4668 44.2529 17.763 44.7588 18.3555V14.5H46.0234V25H44.8613L44.7998 24.207C44.2939 24.8268 43.5898 25.1367 42.6875 25.1367C41.8307 25.1367 41.1312 24.7858 40.5889 24.084C40.0511 23.3822 39.7822 22.4661 39.7822 21.3359V21.2402ZM41.0469 21.3838C41.0469 22.2223 41.2201 22.8786 41.5664 23.3525C41.9128 23.8265 42.3913 24.0635 43.002 24.0635C43.804 24.0635 44.3896 23.7035 44.7588 22.9834V19.5859C44.3805 18.8887 43.7995 18.54 43.0156 18.54C42.3958 18.54 41.9128 18.7793 41.5664 19.2578C41.2201 19.7363 41.0469 20.445 41.0469 21.3838ZM49.1816 17.6035L49.2158 18.4238C49.7581 17.7858 50.4896 17.4668 51.4102 17.4668C52.4447 17.4668 53.1488 17.8633 53.5225 18.6562C53.7686 18.3008 54.0876 18.0137 54.4795 17.7949C54.876 17.5762 55.3431 17.4668 55.8809 17.4668C57.5033 17.4668 58.3281 18.3258 58.3555 20.0439V25H57.0908V20.1191C57.0908 19.5905 56.9701 19.1963 56.7285 18.9365C56.487 18.6722 56.0814 18.54 55.5117 18.54C55.0423 18.54 54.6527 18.6813 54.3428 18.9639C54.0329 19.2419 53.8529 19.6178 53.8027 20.0918V25H52.5312V20.1533C52.5312 19.0778 52.0049 18.54 50.9521 18.54C50.1227 18.54 49.5553 18.8932 49.25 19.5996V25H47.9854V17.6035H49.1816ZM61.6436 25H60.3789V17.6035H61.6436V25ZM60.2764 15.6416C60.2764 15.4365 60.3379 15.2633 60.4609 15.1221C60.5885 14.9808 60.7754 14.9102 61.0215 14.9102C61.2676 14.9102 61.4544 14.9808 61.582 15.1221C61.7096 15.2633 61.7734 15.4365 61.7734 15.6416C61.7734 15.8467 61.7096 16.0176 61.582 16.1543C61.4544 16.291 61.2676 16.3594 61.0215 16.3594C60.7754 16.3594 60.5885 16.291 60.4609 16.1543C60.3379 16.0176 60.2764 15.8467 60.2764 15.6416ZM64.8701 17.6035L64.9111 18.5332C65.4762 17.8223 66.2145 17.4668 67.126 17.4668C68.6891 17.4668 69.4775 18.3486 69.4912 20.1123V25H68.2266V20.1055C68.222 19.5723 68.099 19.1781 67.8574 18.9229C67.6204 18.6676 67.249 18.54 66.7432 18.54C66.333 18.54 65.973 18.6494 65.6631 18.8682C65.3532 19.0869 65.1117 19.374 64.9385 19.7295V25H63.6738V17.6035H64.8701Z" fill="#241400"/>
<path fill-rule="evenodd" clip-rule="evenodd" d="M21.7405 26.2448C21.7405 29.7282 16.9635 30.1309 13.3713 30.1309L13.1142 30.1306C10.8256 30.1251 5 29.9806 5 26.2237C5 22.8114 9.58498 22.3554 13.1499 22.3382L13.6284 22.3379C15.9169 22.3434 21.7405 22.4879 21.7405 26.2448ZM13.3713 23.9229C8.86807 23.9229 6.58527 24.6965 6.58527 26.2237C6.58527 27.7646 8.86807 28.5456 13.3713 28.5456C17.8735 28.5456 20.1552 27.772 20.1552 26.2448C20.1552 24.7039 17.8735 23.9229 13.3713 23.9229ZM13.3713 9.13086C16.4657 9.13086 18.9821 11.6483 18.9821 14.7427C18.9821 17.8372 16.4657 20.3535 13.3713 20.3535H13.3375C10.2494 20.344 7.74781 17.8256 7.75834 14.7396C7.75834 11.6483 10.2758 9.13086 13.3713 9.13086ZM13.3713 10.64C11.1086 10.64 9.26753 12.48 9.26753 14.7427C9.26016 16.998 11.0874 18.837 13.3406 18.8454L13.3713 19.6V18.8454C15.633 18.8454 17.4729 17.0044 17.4729 14.7427C17.4729 12.48 15.633 10.64 13.3713 10.64Z" fill="black"/>
</svg>
