<svg width="177" height="42" viewBox="0 0 177 42" fill="none" xmlns="http://www.w3.org/2000/svg">
<path d="M47.798 8.5927H51.102V15.8307H55.526V18.3927H47.798V8.5927ZM56.4386 8.5927H59.7426V18.3927H56.4386V8.5927ZM69.1732 13.2687C69.7518 13.4834 70.1998 13.796 70.5172 14.2067C70.8345 14.6174 70.9932 15.112 70.9932 15.6907C70.9932 16.5494 70.6385 17.2167 69.9292 17.6927C69.2198 18.1594 68.1932 18.3927 66.8492 18.3927H61.3332V8.5927H66.5692C67.8758 8.5927 68.8605 8.82603 69.5232 9.2927C70.1952 9.75937 70.5312 10.38 70.5312 11.1547C70.5312 11.612 70.4145 12.0227 70.1812 12.3867C69.9572 12.7507 69.6212 13.0447 69.1732 13.2687ZM64.5812 10.9027V12.3587H66.1212C66.8398 12.3587 67.1992 12.116 67.1992 11.6307C67.1992 11.1454 66.8398 10.9027 66.1212 10.9027H64.5812ZM66.5692 16.0827C67.2972 16.0827 67.6612 15.826 67.6612 15.3127C67.6612 14.7994 67.2972 14.5427 66.5692 14.5427H64.5812V16.0827H66.5692ZM76.3613 15.9287H75.4653V18.3927H72.1613V8.5927H76.8793C77.7846 8.5927 78.5733 8.74203 79.2453 9.0407C79.9173 9.33937 80.4353 9.7687 80.7993 10.3287C81.1633 10.8887 81.3453 11.542 81.3453 12.2887C81.3453 12.9887 81.1866 13.6 80.8693 14.1227C80.5519 14.6454 80.0946 15.0607 79.4973 15.3687L81.5553 18.3927H78.0273L76.3613 15.9287ZM78.0133 12.2887C78.0133 11.9247 77.9013 11.6447 77.6773 11.4487C77.4533 11.2434 77.1173 11.1407 76.6693 11.1407H75.4653V13.4367H76.6693C77.1173 13.4367 77.4533 13.3387 77.6773 13.1427C77.9013 12.9374 78.0133 12.6527 78.0133 12.2887ZM89.2709 16.6847H85.5469L84.8889 18.3927H81.5289L85.8129 8.5927H89.0609L93.3449 18.3927H89.9289L89.2709 16.6847ZM88.3609 14.3047L87.4089 11.8407L86.4569 14.3047H88.3609ZM98.0722 15.9287H97.1762V18.3927H93.8722V8.5927H98.5902C99.4956 8.5927 100.284 8.74203 100.956 9.0407C101.628 9.33937 102.146 9.7687 102.51 10.3287C102.874 10.8887 103.056 11.542 103.056 12.2887C103.056 12.9887 102.898 13.6 102.58 14.1227C102.263 14.6454 101.806 15.0607 101.208 15.3687L103.266 18.3927H99.7382L98.0722 15.9287ZM99.7242 12.2887C99.7242 11.9247 99.6122 11.6447 99.3882 11.4487C99.1642 11.2434 98.8282 11.1407 98.3802 11.1407H97.1762V13.4367H98.3802C98.8282 13.4367 99.1642 13.3387 99.3882 13.1427C99.6122 12.9374 99.7242 12.6527 99.7242 12.2887ZM109.991 14.8367V18.3927H106.687V14.7947L102.991 8.5927H106.477L108.479 11.9807L110.495 8.5927H113.687L109.991 14.8367Z" fill="#720418"/>
<path d="M57.215 27.6997C57.813 27.8297 58.2723 28.0897 58.593 28.4797C58.9223 28.861 59.087 29.355 59.087 29.9617C59.087 30.7417 58.7967 31.344 58.216 31.7687C57.644 32.1847 56.7947 32.3927 55.668 32.3927H51.482V23.2927H55.408C56.422 23.2927 57.2063 23.4964 57.761 23.9037C58.3243 24.311 58.606 24.8874 58.606 25.6327C58.606 26.1354 58.4803 26.5644 58.229 26.9197C57.9863 27.2664 57.6483 27.5264 57.215 27.6997ZM52.444 24.0857V27.3877H55.343C56.0797 27.3877 56.6473 27.249 57.046 26.9717C57.4447 26.6857 57.644 26.274 57.644 25.7367C57.644 25.1994 57.4447 24.792 57.046 24.5147C56.6473 24.2287 56.0797 24.0857 55.343 24.0857H52.444ZM55.655 31.5997C56.4697 31.5997 57.085 31.461 57.501 31.1837C57.917 30.9064 58.125 30.473 58.125 29.8837C58.125 28.7484 57.3017 28.1807 55.655 28.1807H52.444V31.5997H55.655ZM63.8828 32.4577C63.2241 32.4577 62.6304 32.3104 62.1018 32.0157C61.5731 31.7124 61.1571 31.2964 60.8538 30.7677C60.5504 30.239 60.3988 29.641 60.3988 28.9737C60.3988 28.3064 60.5504 27.7084 60.8538 27.1797C61.1571 26.651 61.5731 26.2394 62.1018 25.9447C62.6304 25.65 63.2241 25.5027 63.8828 25.5027C64.5414 25.5027 65.1351 25.65 65.6638 25.9447C66.1924 26.2394 66.6041 26.651 66.8988 27.1797C67.2021 27.7084 67.3538 28.3064 67.3538 28.9737C67.3538 29.641 67.2021 30.239 66.8988 30.7677C66.6041 31.2964 66.1924 31.7124 65.6638 32.0157C65.1351 32.3104 64.5414 32.4577 63.8828 32.4577ZM63.8828 31.6387C64.3681 31.6387 64.8014 31.5304 65.1828 31.3137C65.5728 31.0884 65.8761 30.772 66.0928 30.3647C66.3094 29.9574 66.4178 29.4937 66.4178 28.9737C66.4178 28.4537 66.3094 27.99 66.0928 27.5827C65.8761 27.1754 65.5728 26.8634 65.1828 26.6467C64.8014 26.4214 64.3681 26.3087 63.8828 26.3087C63.3974 26.3087 62.9598 26.4214 62.5698 26.6467C62.1884 26.8634 61.8851 27.1754 61.6598 27.5827C61.4431 27.99 61.3348 28.4537 61.3348 28.9737C61.3348 29.4937 61.4431 29.9574 61.6598 30.3647C61.8851 30.772 62.1884 31.0884 62.5698 31.3137C62.9598 31.5304 63.3974 31.6387 63.8828 31.6387ZM72.0332 32.4577C71.3745 32.4577 70.7808 32.3104 70.2522 32.0157C69.7235 31.7124 69.3075 31.2964 69.0042 30.7677C68.7008 30.239 68.5492 29.641 68.5492 28.9737C68.5492 28.3064 68.7008 27.7084 69.0042 27.1797C69.3075 26.651 69.7235 26.2394 70.2522 25.9447C70.7808 25.65 71.3745 25.5027 72.0332 25.5027C72.6918 25.5027 73.2855 25.65 73.8142 25.9447C74.3428 26.2394 74.7545 26.651 75.0492 27.1797C75.3525 27.7084 75.5042 28.3064 75.5042 28.9737C75.5042 29.641 75.3525 30.239 75.0492 30.7677C74.7545 31.2964 74.3428 31.7124 73.8142 32.0157C73.2855 32.3104 72.6918 32.4577 72.0332 32.4577ZM72.0332 31.6387C72.5185 31.6387 72.9518 31.5304 73.3332 31.3137C73.7232 31.0884 74.0265 30.772 74.2432 30.3647C74.4598 29.9574 74.5682 29.4937 74.5682 28.9737C74.5682 28.4537 74.4598 27.99 74.2432 27.5827C74.0265 27.1754 73.7232 26.8634 73.3332 26.6467C72.9518 26.4214 72.5185 26.3087 72.0332 26.3087C71.5478 26.3087 71.1102 26.4214 70.7202 26.6467C70.3388 26.8634 70.0355 27.1754 69.8102 27.5827C69.5935 27.99 69.4852 28.4537 69.4852 28.9737C69.4852 29.4937 69.5935 29.9574 69.8102 30.3647C70.0355 30.772 70.3388 31.0884 70.7202 31.3137C71.1102 31.5304 71.5478 31.6387 72.0332 31.6387ZM79.9236 28.9607L78.3116 30.4427V32.3927H77.3886V22.7467H78.3116V29.2857L82.3936 25.5547H83.5376L80.6126 28.3497L83.8106 32.3927H82.6796L79.9236 28.9607ZM90.4315 32.4577C89.8769 32.4577 89.3439 32.3797 88.8325 32.2237C88.3299 32.059 87.9355 31.8554 87.6495 31.6127L88.0655 30.8847C88.3515 31.11 88.7112 31.2964 89.1445 31.4437C89.5779 31.5824 90.0285 31.6517 90.4965 31.6517C91.1205 31.6517 91.5799 31.5564 91.8745 31.3657C92.1779 31.1664 92.3295 30.889 92.3295 30.5337C92.3295 30.2824 92.2472 30.0874 92.0825 29.9487C91.9179 29.8014 91.7099 29.693 91.4585 29.6237C91.2072 29.5457 90.8735 29.472 90.4575 29.4027C89.9029 29.2987 89.4565 29.1947 89.1185 29.0907C88.7805 28.978 88.4902 28.7917 88.2475 28.5317C88.0135 28.2717 87.8965 27.912 87.8965 27.4527C87.8965 26.8807 88.1349 26.4127 88.6115 26.0487C89.0882 25.6847 89.7512 25.5027 90.6005 25.5027C91.0425 25.5027 91.4845 25.5634 91.9265 25.6847C92.3685 25.7974 92.7325 25.949 93.0185 26.1397L92.6155 26.8807C92.0522 26.4907 91.3805 26.2957 90.6005 26.2957C90.0112 26.2957 89.5649 26.3997 89.2615 26.6077C88.9669 26.8157 88.8195 27.0887 88.8195 27.4267C88.8195 27.6867 88.9019 27.8947 89.0665 28.0507C89.2399 28.2067 89.4522 28.3237 89.7035 28.4017C89.9549 28.471 90.3015 28.5447 90.7435 28.6227C91.2895 28.7267 91.7272 28.8307 92.0565 28.9347C92.3859 29.0387 92.6675 29.2164 92.9015 29.4677C93.1355 29.719 93.2525 30.0657 93.2525 30.5077C93.2525 31.1057 93.0012 31.5824 92.4985 31.9377C92.0045 32.2844 91.3155 32.4577 90.4315 32.4577ZM98.5599 31.9767C98.3865 32.1327 98.1699 32.254 97.9099 32.3407C97.6585 32.4187 97.3942 32.4577 97.1169 32.4577C96.4755 32.4577 95.9815 32.2844 95.6349 31.9377C95.2882 31.591 95.1149 31.1014 95.1149 30.4687V26.3347H93.8929V25.5547H95.1149V24.0597H96.0379V25.5547H98.1179V26.3347H96.0379V30.4167C96.0379 30.824 96.1375 31.136 96.3369 31.3527C96.5449 31.5607 96.8395 31.6647 97.2209 31.6647C97.4115 31.6647 97.5935 31.6344 97.7669 31.5737C97.9489 31.513 98.1049 31.4264 98.2349 31.3137L98.5599 31.9767ZM102.794 32.4577C102.135 32.4577 101.542 32.3104 101.013 32.0157C100.484 31.7124 100.068 31.2964 99.7649 30.7677C99.4616 30.239 99.3099 29.641 99.3099 28.9737C99.3099 28.3064 99.4616 27.7084 99.7649 27.1797C100.068 26.651 100.484 26.2394 101.013 25.9447C101.542 25.65 102.135 25.5027 102.794 25.5027C103.453 25.5027 104.046 25.65 104.575 25.9447C105.104 26.2394 105.515 26.651 105.81 27.1797C106.113 27.7084 106.265 28.3064 106.265 28.9737C106.265 29.641 106.113 30.239 105.81 30.7677C105.515 31.2964 105.104 31.7124 104.575 32.0157C104.046 32.3104 103.453 32.4577 102.794 32.4577ZM102.794 31.6387C103.279 31.6387 103.713 31.5304 104.094 31.3137C104.484 31.0884 104.787 30.772 105.004 30.3647C105.221 29.9574 105.329 29.4937 105.329 28.9737C105.329 28.4537 105.221 27.99 105.004 27.5827C104.787 27.1754 104.484 26.8634 104.094 26.6467C103.713 26.4214 103.279 26.3087 102.794 26.3087C102.309 26.3087 101.871 26.4214 101.481 26.6467C101.1 26.8634 100.796 27.1754 100.571 27.5827C100.354 27.99 100.246 28.4537 100.246 28.9737C100.246 29.4937 100.354 29.9574 100.571 30.3647C100.796 30.772 101.1 31.0884 101.481 31.3137C101.871 31.5304 102.309 31.6387 102.794 31.6387ZM109.033 26.8937C109.25 26.4344 109.571 26.0877 109.995 25.8537C110.429 25.6197 110.962 25.5027 111.594 25.5027V26.3997L111.373 26.3867C110.654 26.3867 110.091 26.6077 109.683 27.0497C109.276 27.4917 109.072 28.1114 109.072 28.9087V32.3927H108.149V25.5547H109.033V26.8937ZM119.156 29.2597H113.436C113.488 29.9704 113.761 30.5467 114.255 30.9887C114.749 31.422 115.373 31.6387 116.127 31.6387C116.552 31.6387 116.942 31.565 117.297 31.4177C117.652 31.2617 117.96 31.0364 118.22 30.7417L118.74 31.3397C118.437 31.7037 118.055 31.981 117.596 32.1717C117.145 32.3624 116.647 32.4577 116.101 32.4577C115.399 32.4577 114.775 32.3104 114.229 32.0157C113.692 31.7124 113.271 31.2964 112.968 30.7677C112.665 30.239 112.513 29.641 112.513 28.9737C112.513 28.3064 112.656 27.7084 112.942 27.1797C113.237 26.651 113.635 26.2394 114.138 25.9447C114.649 25.65 115.221 25.5027 115.854 25.5027C116.487 25.5027 117.054 25.65 117.557 25.9447C118.06 26.2394 118.454 26.651 118.74 27.1797C119.026 27.6997 119.169 28.2977 119.169 28.9737L119.156 29.2597ZM115.854 26.2957C115.195 26.2957 114.641 26.508 114.19 26.9327C113.748 27.3487 113.497 27.8947 113.436 28.5707H118.285C118.224 27.8947 117.969 27.3487 117.518 26.9327C117.076 26.508 116.521 26.2957 115.854 26.2957Z" fill="#241400"/>
<line x1="48" y1="20.8927" x2="175" y2="20.8927" stroke="black" stroke-opacity="0.59"/>
<g clip-path="url(#clip0_8_5)">
<path d="M39.0037 14.9043C38.8339 13.6275 38.81 11.4285 39.9958 10.6901C40.017 10.6766 40.0328 10.657 40.0514 10.6402C41.0209 10.3301 41.6919 9.89492 41.1652 9.30931L26.8633 5L3.70522 8.2197C3.70522 8.2197 1.05333 8.59874 1.29023 12.7188C1.41883 14.9612 2.12213 16.0624 2.73719 16.6044L0.836863 17.1771C0.309419 17.7627 0.980256 18.1981 1.94991 18.5076C1.96834 18.5249 1.98388 18.5444 2.00544 18.5579C3.19056 19.2969 3.16775 21.4957 2.99728 22.7727C-1.26025 23.9817 0.268056 24.3756 0.268056 24.3756L1.20199 24.6016C0.545064 25.1952 -0.107347 26.3209 0.0148627 28.4559C0.251887 32.5752 2.4301 32.8595 2.4301 32.8595L17.5846 37.7852L40.4585 32.2448C40.4585 32.2448 41.9873 31.8502 37.7286 30.6412C37.5574 29.3662 37.5336 27.1676 38.7215 26.4267C38.7433 26.4136 38.7592 26.3936 38.7769 26.3771C39.7465 26.067 40.4169 25.6322 39.89 25.0466L38.8958 24.7464C39.5589 24.3465 40.5549 23.3015 40.7109 20.5871C40.8186 18.72 40.3315 17.6265 39.7677 16.9827L41.7328 16.5072C41.733 16.5079 43.2618 16.1133 39.0037 14.9043ZM19.8711 14.8515L23.7176 14.061L36.7167 11.3896L38.6534 10.9913C38.0346 12.1239 38.0605 13.6739 38.1629 14.6701C38.1854 14.8955 38.2112 15.1013 38.2363 15.2577L36.1165 15.7848L19.7094 19.8664L19.8711 14.8515ZM3.34799 18.8604L5.28442 19.2587L17.7682 21.825L18.8588 22.0484L22.1294 22.7206L22.2907 27.7356L5.42781 23.5402L3.76538 23.1271C3.78982 22.9704 3.81565 22.7648 3.83908 22.5388C3.94086 21.5433 3.96731 19.993 3.34799 18.8604ZM2.59568 12.5205C2.57224 11.4246 2.76753 10.6321 3.16223 10.2292C3.41342 9.972 3.70986 9.91848 3.91316 9.91848C4.02058 9.91848 4.09792 9.9334 4.10318 9.9334L14.0814 13.1864L19.0596 14.8095L18.8963 19.8595L4.93032 15.944L4.1933 15.7376C4.16623 15.7299 4.1295 15.7246 4.10118 15.7234C4.04364 15.7193 2.66286 15.5922 2.59568 12.5205ZM17.6207 35.5974L2.91806 31.4753C2.89086 31.4674 2.85451 31.4622 2.82619 31.4608C2.76765 31.4569 1.38624 31.3299 1.31943 28.259C1.29562 27.1617 1.49191 26.3699 1.88586 25.9667C2.13768 25.7095 2.43424 25.656 2.63717 25.656C2.74484 25.656 2.82192 25.6704 2.82756 25.6704C2.82756 25.6704 2.82819 25.6704 2.82756 25.6704L17.783 30.5473L17.6207 35.5974ZM36.8866 30.4073C36.9098 30.6334 36.9356 30.8388 36.9607 30.9955L18.4334 35.6045L18.5954 30.5895L22.5563 29.7752L23.1413 29.9167L25.3338 29.2041L35.4404 27.1273L37.3778 26.7287C36.7584 27.8612 36.784 29.4118 36.8866 30.4073ZM37.9071 23.5917C37.8734 23.5925 37.8397 23.597 37.808 23.607L36.4106 23.9982L23.1057 27.7289L22.943 22.679L27.3082 21.2552L37.878 17.8081C37.8794 17.8075 38.4341 17.6843 38.8412 18.0983C39.2353 18.5011 39.4308 19.2937 39.4077 20.3896C39.3388 23.4602 37.9574 23.5878 37.9071 23.5917Z" fill="#720418"/>
</g>
<defs>
<clipPath id="clip0_8_5">
<rect width="42" height="42" fill="white"/>
</clipPath>
</defs>
</svg>
